<?xml version="1.0" encoding="UTF-8" standalone="no"?>
<!-- Created with Inkscape (http://www.inkscape.org/) -->

<svg
   xmlns:dc="http://purl.org/dc/elements/1.1/"
   xmlns:cc="http://creativecommons.org/ns#"
   xmlns:rdf="http://www.w3.org/1999/02/22-rdf-syntax-ns#"
   xmlns:svg="http://www.w3.org/2000/svg"
   xmlns="http://www.w3.org/2000/svg"
   xmlns:sodipodi="http://sodipodi.sourceforge.net/DTD/sodipodi-0.dtd"
   xmlns:inkscape="http://www.inkscape.org/namespaces/inkscape"
   width="732.77228"
   height="188.38625"
   id="svg2"
   version="1.1"
   inkscape:version="0.48.2 r9819"
   sodipodi:docname="AJAX.svg">
  <defs
     id="defs4">
    <linearGradient
       id="linearGradient3772">
      <stop
         style="stop-color:#012c61;stop-opacity:1;"
         offset="0"
         id="stop3774" />
      <stop
         style="stop-color:#01648d;stop-opacity:1;"
         offset="1"
         id="stop3776" />
    </linearGradient>
  </defs>
  <sodipodi:namedview
     id="base"
     pagecolor="#ffffff"
     bordercolor="#666666"
     borderopacity="1.0"
     inkscape:pageopacity="0.0"
     inkscape:pageshadow="2"
     inkscape:zoom="0.79958885"
     inkscape:cx="419.46012"
     inkscape:cy="193.46425"
     inkscape:document-units="px"
     inkscape:current-layer="layer1"
     showgrid="false"
     inkscape:window-width="1280"
     inkscape:window-height="1004"
     inkscape:window-x="-8"
     inkscape:window-y="-8"
     inkscape:window-maximized="1"
     fit-margin-top="0"
     fit-margin-left="0"
     fit-margin-right="0"
     fit-margin-bottom="0" />
  <metadata
     id="metadata7">
    <rdf:RDF>
      <cc:Work
         rdf:about="">
        <dc:format>image/svg+xml</dc:format>
        <dc:type
           rdf:resource="http://purl.org/dc/dcmitype/StillImage" />
        <dc:title />
      </cc:Work>
    </rdf:RDF>
  </metadata>
  <g
     inkscape:label="Capa 1"
     inkscape:groupmode="layer"
     id="layer1"
     transform="translate(-5.9251389,-858.67896)">
    <path
       style="fill:#0a3d91;fill-opacity:1;stroke:none"
       d="m 75.447301,1047.0652 c -66.8280499,0 -69.4035699,-69.92303 -69.5028399,-92.84843 l -0.0191,0 c 0,-0.38086 -4.8e-4,-0.91312 0,-1.33513 -5e-4,-0.42862 0,-0.96791 0,-1.3542 l 0.0191,0 c 0.0993,-22.9254 2.67479,-92.84848 69.5028399,-92.84848 66.501519,0 69.568869,71.97724 69.712659,92.84848 l 0.019,0 c 0,0.36999 0.001,0.92377 0,1.3542 6.1e-4,0.42356 0,0.97035 0,1.33513 l -0.019,0 c -0.14379,20.87124 -3.21114,92.84843 -69.712659,92.84843 z"
       id="path2996"
       inkscape:connector-curvature="0" />
    <path
       style="fill:none;stroke:#ffffff;stroke-width:13.42755318;stroke-linecap:butt;stroke-linejoin:miter;stroke-miterlimit:4;stroke-opacity:1;stroke-dasharray:none"
       d="m 37.507291,914.28125 70.437349,70.43735 -31.035609,31.0356 0,-124.68219 30.765729,30.76573 -69.897589,70.16747"
       id="path2984"
       inkscape:connector-curvature="0"
       sodipodi:nodetypes="cccccc" />
    <path
       inkscape:connector-curvature="0"
       id="path3021"
       style="font-size:40px;font-style:normal;font-variant:normal;font-weight:normal;font-stretch:normal;text-align:start;line-height:125%;letter-spacing:0px;word-spacing:0px;writing-mode:lr-tb;text-anchor:start;fill:#000000;fill-opacity:1;stroke:none;font-family:DINCond-Bold;-inkscape-font-specification:DINCond-Bold"
       d="m 243.04659,978.18437 c 0.11159,-4.0558 -0.25095,-8.26914 -1.08805,-12.63991 -0.83737,-4.37068 -2.82062,-8.31412 -5.94976,-11.83027 -1.88297,-2.0091 -4.2289,-3.5685 -7.03781,-4.67809 2.56194,-1.04953 4.84615,-2.54893 6.8526,-4.49821 2.87832,-2.87878 4.76128,-6.11749 5.64879,-9.71608 0.88734,-3.59847 1.28864,-7.55689 1.20381,-11.87526 0.0324,-6.26363 -0.58655,-11.59397 -1.85203,-15.99105 -1.26566,-4.39691 -3.36467,-8.0629 -6.29698,-10.9981 -2.7396,-2.6913 -6.19673,-4.68551 -10.37155,-5.98263 -4.17486,-1.29684 -9.29888,-1.94158 -15.37203,-1.9342 l -32.96661,0 0,128.10853 32.7814,0 c 6.08084,0.01 11.23573,-0.6409 15.46463,-1.9567 4.22882,-1.3157 7.71688,-3.3624 10.46416,-6.14 3.10983,-3.0888 5.31686,-7.0322 6.62109,-11.83027 1.30405,-4.79806 1.93687,-10.81064 1.89834,-18.03776 z m -20.74301,-0.17993 c 0.05,7.36584 -1.16145,12.56123 -3.63466,15.58627 -2.47332,3.02502 -6.50928,4.48695 -12.10784,4.38575 l -10.00109,0 0,-39.94399 10.00109,0 c 5.51758,-0.0562 9.53034,1.49571 12.03838,4.65565 2.50795,3.16002 3.74264,8.26545 3.70412,15.31632 z m -0.37042,-54.51809 c 0.0324,6.08015 -1.19232,10.51835 -3.68096,13.31464 -2.48874,2.79647 -6.44751,4.17591 -11.87632,4.13835 l -9.81589,0 0,-34.72606 9.81589,0 c 5.50984,-0.09 9.49176,1.16964 11.94577,3.77849 2.45392,2.60903 3.65776,7.10724 3.61151,13.49458 z" />
    <path
       style="font-size:40px;font-style:normal;font-variant:normal;font-weight:normal;font-stretch:normal;text-align:start;line-height:125%;letter-spacing:0px;word-spacing:0px;writing-mode:lr-tb;text-anchor:start;fill:#000000;fill-opacity:1;stroke:none;font-family:DINCond-Bold;-inkscape-font-specification:DINCond-Bold"
       d="m 253.76293,888.03266 0,27.54174 0,1.25884 0,69.27397 0,1.25883 0,27.54176 17.90976,0 0,-1.2589 0,-27.37003 0,-1.25884 0,-67.09962 0,-1.25883 0,-27.37009 0,-1.25883 -17.90976,0 z"
       id="path3052"
       inkscape:connector-curvature="0" />
    <path
       inkscape:connector-curvature="0"
       id="path3025"
       style="font-size:40px;font-style:normal;font-variant:normal;font-weight:normal;font-stretch:normal;text-align:start;line-height:125%;letter-spacing:0px;word-spacing:0px;writing-mode:lr-tb;text-anchor:start;fill:#000000;fill-opacity:1;stroke:none;font-family:DINCond-Bold;-inkscape-font-specification:DINCond-Bold"
       d="m 346.19437,1016.1491 0,-94.82187 -19.89019,0 0,68.1926 c -0.0666,3.68479 -1.01254,6.43619 -2.8381,8.2542 -1.82564,1.81802 -4.13209,2.72517 -6.91933,2.72137 -2.78733,0 -5.09377,-0.90335 -6.91934,-2.72137 -1.82564,-1.81801 -2.77166,-4.56941 -2.83808,-8.2542 l 0,-68.1926 -19.89019,0 0,68.37253 c -0.009,5.38661 0.43393,9.63741 1.33697,12.75234 0.903,3.1151 2.3338,5.7015 4.2923,7.7594 2.21652,2.5115 4.77318,4.3708 7.66992,5.5778 2.89673,1.207 6.34467,1.8068 10.34381,1.7993 1.79826,-0.01 3.54955,-0.2587 5.25403,-0.7422 1.70439,-0.4836 3.26808,-1.1359 4.69109,-1.9567 1.24306,-0.6635 2.46275,-1.5407 3.65904,-2.6315 1.19614,-1.0908 2.2282,-2.1929 3.09611,-3.3062 l 0,7.1971 z" />
    <path
       inkscape:connector-curvature="0"
       id="path3027"
       style="font-size:40px;font-style:normal;font-variant:normal;font-weight:normal;font-stretch:normal;text-align:start;line-height:125%;letter-spacing:0px;word-spacing:0px;writing-mode:lr-tb;text-anchor:start;fill:#000000;fill-opacity:1;stroke:none;font-family:DINCond-Bold;-inkscape-font-specification:DINCond-Bold"
       d="m 421.15152,974.22595 c 0.14418,-9.135 -0.19224,-17.94398 -1.00926,-26.42687 -0.81706,-8.48276 -3.55642,-15.26756 -8.21813,-20.35431 -2.9837,-2.91249 -6.2918,-4.91421 -9.92421,-6.00513 -3.6325,-1.09069 -7.56534,-1.60799 -11.79855,-1.55185 -4.13713,-0.045 -8.0219,0.49489 -11.65436,1.61932 -3.63246,1.12466 -6.98862,3.10389 -10.06839,5.93766 -4.17717,4.17963 -6.82844,9.89984 -7.95381,17.1606 -1.12537,7.2609 -1.61399,15.27516 -1.46577,24.04284 -0.14802,8.76777 0.34026,16.78203 1.46577,24.04284 1.12542,7.26086 3.77664,12.98105 7.95381,17.16065 3.0157,2.8413 6.2597,4.8505 9.73202,6.0275 3.47222,1.1771 7.53324,1.7468 12.18298,1.7094 4.45744,0.023 8.56651,-0.5623 12.32719,-1.7544 3.76059,-1.192 6.95652,-3.1262 9.5878,-5.8026 2.85148,-3.0101 4.93401,-6.3912 6.24773,-10.14343 1.31352,-3.75222 2.05042,-7.62818 2.2107,-11.62785 l -20.18483,0 c -0.01,1.49945 -0.23214,3.04383 -0.67285,4.63315 -0.44071,1.58937 -1.04933,2.86386 -1.82627,3.82348 -0.94519,1.18078 -2.03456,2.10293 -3.26802,2.76637 -1.23356,0.66348 -2.70736,1.00088 -4.42145,1.01208 -1.83026,-0.023 -3.40821,-0.3823 -4.73385,-1.07955 -1.32564,-0.69719 -2.37493,-1.59683 -3.14787,-2.6989 -1.22154,-1.75806 -2.04653,-4.5844 -2.47504,-8.47912 -0.42869,-3.89463 -0.62881,-8.56526 -0.60074,-14.01188 z m -20.37713,-14.03436 -21.33827,0 c -0.0145,-4.89923 0.20809,-9.04504 0.67283,-12.43749 0.46474,-3.39231 1.26551,-5.78385 2.40295,-7.17462 0.84902,-1.10199 1.89029,-2.00163 3.12384,-2.69891 1.2335,-0.69714 2.75537,-1.05699 4.56563,-1.07958 1.81022,0.0225 3.33209,0.38235 4.56564,1.07958 1.2335,0.69728 2.27477,1.59692 3.12384,2.69891 1.12936,1.39077 1.89831,3.78231 2.30687,7.17462 0.40851,3.39245 0.60066,7.53826 0.57667,12.43749 z" />
    <path
       inkscape:connector-curvature="0"
       id="path3029"
       style="font-size:40px;font-style:normal;font-variant:normal;font-weight:normal;font-stretch:normal;text-align:start;line-height:125%;letter-spacing:0px;word-spacing:0px;writing-mode:lr-tb;text-anchor:start;fill:#000000;fill-opacity:1;stroke:none;font-family:DINCond-Bold;-inkscape-font-specification:DINCond-Bold"
       d="m 472.2039,1016.1491 0,-17.09311 c -4.79557,0.018 -8.39223,-1.00833 -10.79,-3.08126 -2.39781,-2.07288 -3.59672,-5.30407 -3.59667,-9.69359 l 0,-50.3798 14.00308,0 0,-14.57411 -14.00308,0 0,-24.29029 -20.33315,0 0,24.29029 -10.3584,0 0,14.57411 10.3584,0 0,51.45937 c 0.0287,5.54779 0.93112,10.19592 2.70948,13.94439 1.77836,3.7485 4.26403,6.7773 7.4571,9.0863 3.44479,2.4441 7.20129,4.0335 11.26957,4.7681 4.06817,0.7347 8.49611,1.0646 13.28367,0.9896 z" />
    <path
       style="font-size:40px;font-style:normal;font-variant:normal;font-weight:normal;font-stretch:normal;text-align:start;line-height:125%;letter-spacing:0px;word-spacing:0px;writing-mode:lr-tb;text-anchor:start;fill:#000000;fill-opacity:1;stroke:none;font-family:DINCond-Bold;-inkscape-font-specification:DINCond-Bold"
       inkscape:connector-curvature="0"
       id="path3031"
       d="m 540.76222,968.64821 c 0.0962,-8.10792 -0.28199,-15.55244 -1.13455,-22.33355 -0.85289,-6.78093 -2.75919,-12.29121 -5.71891,-16.53085 -2.88656,-3.79716 -6.28243,-6.41356 -10.18762,-7.84936 -3.90536,-1.43558 -8.22736,-2.11778 -12.96611,-2.04666 -4.73879,-0.0711 -9.06084,0.61108 -12.96607,2.04666 -3.90531,1.4358 -7.30115,4.05225 -10.18762,7.84936 -2.95984,4.23964 -4.86615,9.74992 -5.719,16.53085 -0.85281,6.78111 -1.23101,14.22563 -1.13451,22.33355 -0.0962,8.10801 0.28157,15.55253 1.13451,22.33355 0.85285,6.78103 2.75916,12.29134 5.719,16.53084 2.88647,3.8047 6.28231,6.4512 10.18762,7.9393 3.90523,1.4881 8.22728,2.2004 12.96607,2.1367 4.73875,0.064 9.06075,-0.6485 12.96611,-2.1367 3.90519,-1.4881 7.30106,-4.1346 10.18762,-7.9393 2.95972,-4.2395 4.86602,-9.74981 5.71891,-16.53084 0.85277,-6.78102 1.23097,-14.22554 1.13455,-22.33355 z m -19.63433,0 c 0.0464,7.03972 -0.0924,12.93234 -0.41666,17.67791 -0.3242,4.74561 -1.11141,8.20921 -2.36167,10.39083 -0.86058,1.25951 -1.96426,2.20413 -3.31098,2.83385 -1.3468,0.6297 -2.77465,0.9446 -4.28343,0.9446 -1.50886,0 -2.93666,-0.3149 -4.28342,-0.9446 -1.3468,-0.62972 -2.45049,-1.57434 -3.31102,-2.83385 -1.2503,-2.18162 -2.03755,-5.64522 -2.36167,-10.39083 -0.32421,-4.74557 -0.46305,-10.63819 -0.41666,-17.67791 -0.0464,-7.03212 0.0924,-12.89478 0.41666,-17.58794 0.3242,-4.69302 1.11137,-8.12668 2.36167,-10.30086 0.86053,-1.26694 1.96422,-2.24153 3.31098,-2.92382 1.3468,-0.68216 2.7746,-1.02704 4.28346,-1.0346 1.50878,0.009 2.93663,0.35267 4.28343,1.0346 1.34672,0.68229 2.4504,1.65688 3.31098,2.92382 1.25026,2.17418 2.03751,5.60784 2.36171,10.30086 0.32421,4.69316 0.46309,10.55582 0.41666,17.58794 z" />
    <path
       style="font-size:40px;font-style:normal;font-variant:normal;font-weight:normal;font-stretch:normal;text-align:start;line-height:125%;letter-spacing:0px;word-spacing:0px;writing-mode:lr-tb;text-anchor:start;fill:#000000;fill-opacity:1;stroke:none;font-family:DINCond-Bold;-inkscape-font-specification:DINCond-Bold"
       inkscape:connector-curvature="0"
       id="path3033"
       d="m 614.20382,968.64821 c 0.0962,-8.10792 -0.28155,-15.55244 -1.1345,-22.33355 -0.8529,-6.78093 -2.7592,-12.29121 -5.71893,-16.53085 -2.88656,-3.79716 -6.28245,-6.41356 -10.18767,-7.84936 -3.90528,-1.43558 -8.2273,-2.11778 -12.96605,-2.04666 -4.73883,-0.0711 -9.06088,0.61108 -12.96611,2.04666 -3.90527,1.4358 -7.30114,4.05225 -10.18762,7.84936 -2.95984,4.23964 -4.86615,9.74992 -5.71896,16.53085 -0.85285,6.78111 -1.23101,14.22563 -1.13454,22.33355 -0.0962,8.10801 0.28156,15.55253 1.13454,22.33355 0.85281,6.78103 2.75912,12.29134 5.71896,16.53084 2.88648,3.8047 6.28235,6.4512 10.18762,7.9393 3.90523,1.4881 8.22728,2.2004 12.96611,2.1367 4.73875,0.064 9.06077,-0.6485 12.96605,-2.1367 3.90522,-1.4881 7.30111,-4.1346 10.18767,-7.9393 2.95973,-4.2395 4.86603,-9.74981 5.71893,-16.53084 0.85277,-6.78102 1.23094,-14.22554 1.1345,-22.33355 z m -19.63427,0 c 0.0464,7.03972 -0.0925,12.93234 -0.41668,17.67791 -0.32421,4.74561 -1.11143,8.20921 -2.36166,10.39083 -0.86058,1.25951 -1.96423,2.20413 -3.31099,2.83385 -1.3468,0.6297 -2.77465,0.9446 -4.28342,0.9446 -1.5089,0 -2.93671,-0.3149 -4.28347,-0.9446 -1.3468,-0.62972 -2.45049,-1.57434 -3.31098,-2.83385 -1.2503,-2.18162 -2.03755,-5.64522 -2.36167,-10.39083 -0.32421,-4.74557 -0.46309,-10.63819 -0.41665,-17.67791 -0.0464,-7.03212 0.0924,-12.89478 0.41665,-17.58794 0.3242,-4.69302 1.11137,-8.12668 2.36167,-10.30086 0.86049,-1.26694 1.96418,-2.24153 3.31098,-2.92382 1.34676,-0.68216 2.77457,-1.02704 4.28347,-1.0346 1.50877,0.009 2.93662,0.35267 4.28342,1.0346 1.34676,0.68229 2.45041,1.65688 3.31099,2.92382 1.25023,2.17418 2.03745,5.60784 2.36166,10.30086 0.32422,4.69316 0.46307,10.55582 0.41668,17.58794 z" />
    <path
       style="font-size:40px;font-style:normal;font-variant:normal;font-weight:normal;font-stretch:normal;text-align:start;line-height:125%;letter-spacing:0px;word-spacing:0px;writing-mode:lr-tb;text-anchor:start;fill:#000000;fill-opacity:1;stroke:none;font-family:DINCond-Bold;-inkscape-font-specification:DINCond-Bold"
       inkscape:connector-curvature="0"
       id="path3035"
       d="m 666.3919,1016.1491 0,-17.09311 c -4.91784,0.018 -8.60627,-1.00833 -11.06516,-3.08126 -2.45895,-2.07288 -3.68842,-5.30407 -3.68842,-9.69359 l 0,-50.3798 14.36021,0 0,-14.57411 -14.36021,0 0,-24.29029 -20.85153,0 0,24.29029 -10.6226,0 0,14.57411 10.6226,0 0,51.45937 c 0.0311,5.54779 0.95482,10.19592 2.77853,13.94439 1.8237,3.7485 4.37274,6.7773 7.64723,9.0863 3.53261,2.4441 7.38497,4.0335 11.55691,4.7681 4.17188,0.7347 8.71278,1.0646 13.62244,0.9896 z" />
    <path
       style="font-size:40px;font-style:normal;font-variant:normal;font-weight:normal;font-stretch:normal;text-align:start;line-height:125%;letter-spacing:0px;word-spacing:0px;writing-mode:lr-tb;text-anchor:start;fill:#000000;fill-opacity:1;stroke:none;font-family:DINCond-Bold;-inkscape-font-specification:DINCond-Bold"
       inkscape:connector-curvature="0"
       id="path3037"
       d="m 738.69726,1016.1491 0,-68.37251 c 0.009,-5.38652 -0.44408,-9.63732 -1.36845,-12.75236 -0.92436,-3.11495 -2.38882,-5.7014 -4.39343,-7.7594 -2.26883,-2.51142 -4.88562,-4.37063 -7.85054,-5.57779 -2.96505,-1.20692 -6.49412,-1.80667 -10.58739,-1.79925 -1.84067,0.004 -3.63325,0.22131 -5.37779,0.65225 -1.74455,0.43137 -3.34505,1.05339 -4.80151,1.86673 -1.07634,0.55863 -2.14072,1.28582 -3.19301,2.18165 -1.05236,0.89596 -1.97269,1.84806 -2.76089,2.85635 l 0,-39.4042 -20.35855,0 0,128.10853 20.35855,0 0,-68.19258 c 0.0682,-3.6847 1.0363,-6.4361 2.90493,-8.2542 1.86856,-1.81793 4.22931,-2.72508 7.0823,-2.7214 2.85287,-0.004 5.21361,0.90347 7.0823,2.7214 1.86857,1.8181 2.83682,4.5695 2.90493,8.2542 l 0,68.19258 z" />
    <g
       style="font-size:24.41373444px;font-style:normal;font-variant:normal;font-weight:bold;font-stretch:normal;text-align:start;line-height:125%;letter-spacing:0px;word-spacing:0px;writing-mode:lr-tb;text-anchor:start;fill:#000000;fill-opacity:1;stroke:none;font-family:Century Gothic;-inkscape-font-specification:Century Gothic Bold"
       id="text3835" />
  </g>
</svg>
